<svg width="52" height="33" viewBox="0 0 52 33" fill="none" xmlns="http://www.w3.org/2000/svg">
<path d="M14 6L14 15H12.4961L12.4961 10.9051H6.50388L6.50388 15H5L5 6H6.50388L6.50388 10.0133H12.4961V6L14 6Z" fill="white"/>
<path d="M29.8974 6L31 6.01018L31 15L21 15L21 6.01018L22.1026 6.01018L22.1026 13.0249L25.4243 13.0249L25.4243 7.34389L26.485 7.34389L26.485 13.0249L29.8974 13.0249L29.8974 6Z" fill="white"/>
<path d="M39.5184 9.94417H40.0927C40.292 9.94417 40.4519 9.92533 40.5726 9.88765C40.6932 9.84578 40.8033 9.77669 40.903 9.68039L44.6556 6.2889C44.7605 6.18004 44.8706 6.10468 44.986 6.06281C45.1014 6.02094 45.243 6 45.4108 6H46.701L42.4056 9.87509C42.3007 9.97558 42.1984 10.0593 42.0988 10.1263C42.0044 10.1891 41.9021 10.2415 41.792 10.2833C41.9336 10.321 42.0621 10.3775 42.1774 10.4529C42.2928 10.5241 42.4056 10.6183 42.5157 10.7355L47 15H45.6783C45.5787 15 45.4921 14.9958 45.4187 14.9874C45.3505 14.9749 45.2902 14.9581 45.2378 14.9372C45.1853 14.9121 45.1381 14.8849 45.0962 14.8555C45.0594 14.8221 45.0227 14.7844 44.986 14.7425L41.0997 11.1689C40.9948 11.0642 40.882 10.9909 40.7614 10.9491C40.6407 10.903 40.4572 10.88 40.2107 10.88H39.5184V15H38V6H39.5184V9.94417Z" fill="white"/>
<path d="M14 19.0237H10.2781L10.2781 27H8.72995L8.72995 19.0237H5V18H14V19.0237Z" fill="white"/>
<path d="M31 22.5061C31 23.166 30.8797 23.7725 30.6391 24.3258C30.3984 24.875 30.0587 25.3484 29.62 25.7459C29.1812 26.1434 28.6527 26.4529 28.0347 26.6742C27.4213 26.8914 26.7419 27 25.9965 27C25.251 27 24.5716 26.8914 23.9582 26.6742C23.3449 26.4529 22.8188 26.1434 22.38 25.7459C21.9413 25.3484 21.6016 24.875 21.3609 24.3258C21.1203 23.7725 21 23.166 21 22.5061C21 21.8463 21.1203 21.2418 21.3609 20.6926C21.6016 20.1393 21.9413 19.6639 22.38 19.2664C22.8188 18.8648 23.3449 18.5533 23.9582 18.332C24.5716 18.1107 25.251 18 25.9965 18C26.7419 18 27.4213 18.1107 28.0347 18.332C28.6527 18.5533 29.1812 18.8648 29.62 19.2664C30.0587 19.6639 30.3984 20.1393 30.6391 20.6926C30.8797 21.2418 31 21.8463 31 22.5061ZM29.5916 22.5061C29.5916 21.9652 29.5067 21.4795 29.3369 21.0492C29.167 20.6189 28.9264 20.2561 28.615 19.9611C28.3036 19.6619 27.9262 19.4324 27.4827 19.2725C27.0392 19.1127 26.5438 19.0328 25.9965 19.0328C25.4539 19.0328 24.9608 19.1127 24.5173 19.2725C24.0738 19.4324 23.694 19.6619 23.3779 19.9611C23.0665 20.2561 22.8259 20.6189 22.6561 21.0492C22.4862 21.4795 22.4013 21.9652 22.4013 22.5061C22.4013 23.0471 22.4862 23.5328 22.6561 23.9631C22.8259 24.3893 23.0665 24.752 23.3779 25.0512C23.694 25.3463 24.0738 25.5738 24.5173 25.7336C24.9608 25.8893 25.4539 25.9672 25.9965 25.9672C26.5438 25.9672 27.0392 25.8893 27.4827 25.7336C27.9262 25.5738 28.3036 25.3463 28.615 25.0512C28.9264 24.752 29.167 24.3893 29.3369 23.9631C29.5067 23.5328 29.5916 23.0471 29.5916 22.5061Z" fill="white"/>
<path d="M41.3739 22.3587C41.8499 22.3587 42.2691 22.3168 42.6317 22.2331C43 22.1452 43.3059 22.0237 43.5496 21.8688C43.7989 21.7097 43.9858 21.5213 44.1105 21.3036C44.2351 21.0858 44.2975 20.8451 44.2975 20.5813C44.2975 20.0454 44.0595 19.6413 43.5836 19.3692C43.1076 19.097 42.3938 18.9609 41.4419 18.9609H39.6402V22.3587H41.3739ZM47 27H45.5382C45.238 27 45.017 26.9142 44.8754 26.7425L41.7139 23.5269C41.6176 23.4264 41.5127 23.3552 41.3994 23.3133C41.2918 23.2673 41.1218 23.2442 40.8895 23.2442H39.6402V27H38V18H41.4419C42.2125 18 42.8782 18.0586 43.4391 18.1759C44 18.2889 44.4618 18.4543 44.8244 18.672C45.1926 18.8897 45.4646 19.1535 45.6402 19.4634C45.8159 19.769 45.9037 20.1124 45.9037 20.4934C45.9037 20.8116 45.8357 21.1089 45.6997 21.3852C45.5637 21.6615 45.3654 21.9107 45.1048 22.1326C44.8499 22.3503 44.5354 22.5366 44.1615 22.6916C43.7932 22.8465 43.3739 22.9637 42.9037 23.0433C43.1133 23.1312 43.2946 23.2589 43.4476 23.4264L47 27Z" fill="white"/>
<rect y="31" width="52" height="2" fill="#D9D9D9"/>
<rect width="52" height="2" fill="#D9D9D9"/>
<rect x="50" y="33" width="33" height="2" transform="rotate(-90 50 33)" fill="#D9D9D9"/>
<rect y="33" width="33" height="2" transform="rotate(-90 0 33)" fill="#D9D9D9"/>
</svg>
